{"title":"Train to Busan 2016 720p WEBRip H264 - TSKS [S.Chinese Sub]","uid":15813277,"size":2062361373,"categoryP":"video","categoryS":"movies","magnet":"?xt=urn:btih:06929954369ff93cfe9675a7df24acb36975567c&amp;dn=Train+to+Busan+2016+720p+WEBRip+H264+-+TSKS+%5BS.Chinese+Sub%5D&amp;tr=udp%3A%2F%2Ftracker.leechers-paradise.org%3A6969&amp;tr=udp%3A%2F%2Fzer0day.ch%3A1337&amp;tr=udp%3A%2F%2Fopen.demonii.com%3A1337&amp;tr=udp%3A%2F%2Ftracker.coppersurfer.tk%3A6969&amp;tr=udp%3A%2F%2Fexodus.desync.com%3A6969","seeders":7,"leechers":3,"uploader":"junclj","files":1,"time":1473650393,"description":"General\r\nUnique ID                      : 180580520789631197229254995075320380009 (0x87DA8B1186B7E1ECAED7CBCD7085FA69)\r\nComplete name                  : [TSKS][2016][Train To Busan][KO_CN].mkv\r\nFormat                         : Matroska\r\nFormat version                 : Version 2\r\nFile size                      : 1.92 GiB\r\nDuration                       : 1 h 58 min\r\nOverall bit rate               : 2 330 kb/s\r\nEncoded date                   : UTC 2016-09-11 06:59:03\r\nWriting application            : mkvmerge v7.0.0 ('Where We Going') 32bit built on Jun  9 2014 15:08:34\r\nWriting library                : libebml v1.3.0 + libmatroska v1.4.1\r\n\r\nVideo\r\nID                             : 1\r\nFormat                         : AVC\r\nFormat/Info                    : Advanced Video Codec\r\nFormat profile                 :   \r\nFormat settings, CABAC         : Yes\r\nFormat settings, ReFrames      : 4 frames\r\nCodec ID                       : V_MPEG4/ISO/AVC\r\nDuration                       : 1 h 58 min\r\nBit rate                       : 2 200 kb/s\r\nWidth                          : 1 280 pixels\r\nHeight                         : 720 pixels\r\nDisplay aspect ratio           : 16:9\r\nFrame rate mode                : Constant\r\nFrame rate                     : 29.970 (30000/1001) FPS\r\nColor space                    : YUV\r\nChroma subsampling             : 4:2:0\r\nBit depth                      : 8 bits\r\nScan type                      : Progressive\r\nBits/(Pixel*Frame)             : 0.080\r\nStream size                    : 1.81 GiB (94%)\r\nWriting library                : x264 core 130 r2273 b3065e6\r\nEncoding settings              : cabac=1 / ref=3 / deblock=1:0:0 / analyse=0x3:0x113 / me=hex / subme=7 / psy=1 / psy_rd=1.00:0.00 / mixed_ref=1 / me_range=16 / chroma_me=1 / trellis=1 / 8x8dct=1 / cqm=0 / deadzone=21,11 / fast_pskip=1 / chroma_qp_offset=-2 / threads=12 / lookahead_threads=2 / sliced_threads=0 / nr=0 / decimate=1 / interlaced=0 / bluray_compat=0 / constrained_intra=0 / bframes=3 / b_pyramid=2 / b_adapt=1 / b_bias=0 / direct=1 / weightb=1 / open_gop=0 / weightp=2 / keyint=300 / keyint_min=29 / scenecut=40 / intra_refresh=0 / rc_lookahead=40 / rc=2pass / mbtree=1 / bitrate=2200 / ratetol=1.0 / qcomp=0.60 / qpmin=0 / qpmax=69 / qpstep=4 / cplxblur=20.0 / qblur=0.5 / ip_ratio=1.40 / aq=1:1.00\r\nDefault                        : Yes\r\nForced                         : No\r\n\r\nAudio\r\nID                             : 2\r\nFormat                         : AC-3\r\nFormat/Info                    : Audio Coding 3\r\nMode extension                 : CM (complete main)\r\nFormat settings, Endianness    : Big\r\nCodec ID                       : A_AC3\r\nDuration                       : 1 h 58 min\r\nBit rate mode                  : Constant\r\nBit rate                       : 128 kb/s\r\nChannel(s)                     : 2 channels\r\nChannel positions              : Front: L R\r\nSampling rate                  : 44.1 kHz\r\nFrame rate                     : 28.711 FPS (1536 spf)\r\nCompression mode               : Lossy\r\nStream size                    : 108 MiB (5%)\r\nDefault                        : Yes\r\nForced                         : No\r\n\r\nThumbnail \nhttp://imgur.com/uqxLdyy\r\n\r\nScreens \nhttp://imgur.com/CSX5dd7 \nhttp://imgur.com/FKzzrs0","torrent":{"xt":"urn:btih:06929954369ff93cfe9675a7df24acb36975567c","amp;dn":"Train+to+Busan+2016+720p+WEBRip+H264+-+TSKS+%5BS.Chinese+Sub%5D","amp;tr":["udp%3A%2F%2Ftracker.leechers-paradise.org%3A6969","udp%3A%2F%2Fzer0day.ch%3A1337","udp%3A%2F%2Fopen.demonii.com%3A1337","udp%3A%2F%2Ftracker.coppersurfer.tk%3A6969","udp%3A%2F%2Fexodus.desync.com%3A6969"],"infoHash":"06929954369ff93cfe9675a7df24acb36975567c","infoHashBuffer":{"type":"Buffer","data":[6,146,153,84,54,159,249,60,254,150,117,167,223,36,172,179,105,117,86,124]},"announce":[],"urlList":[]}}